<svg xmlns="http://www.w3.org/2000/svg" width="20.277" height="27.036" viewBox="0 0 20.277 27.036">
  <g id="icon_whitelist" transform="translate(-2)">
    <path id="路径_636" data-name="路径 636" d="M5.845,7a.845.845,0,1,0,0,1.69h8.449a.845.845,0,1,0,0-1.69ZM5,11.224a.845.845,0,0,1,.845-.845h8.449a.845.845,0,1,1,0,1.69H5.845A.845.845,0,0,1,5,11.224ZM5,14.6a.845.845,0,0,1,.845-.845h3.38a.845.845,0,0,1,0,1.69H5.845A.845.845,0,0,1,5,14.6Z" transform="translate(2.069 4.828)"/>
    <path id="路径_637" data-name="路径 637" d="M14.673,0H5.38A3.38,3.38,0,0,0,2,3.38V23.657a3.38,3.38,0,0,0,3.38,3.38H18.9a3.38,3.38,0,0,0,3.38-3.38V7.6Zm0,1.69v3.38A2.535,2.535,0,0,0,17.208,7.6h3.38V23.657a1.69,1.69,0,0,1-1.69,1.69H5.38a1.69,1.69,0,0,1-1.69-1.69V3.38A1.69,1.69,0,0,1,5.38,1.69Z" transform="translate(0)"/>
  </g>
</svg>
