<svg xmlns="http://www.w3.org/2000/svg" width="31.6" height="23.7" viewBox="0 0 31.6 23.7">
  <g id="user" transform="translate(0 -2)">
    <path id="路径_646" data-name="路径 646" d="M7.975,25.7A1.934,1.934,0,0,1,6,23.725c0-1.975,1.975-7.9,9.875-7.9s9.875,5.925,9.875,7.9A1.934,1.934,0,0,1,23.775,25.7Zm7.9-11.85A5.925,5.925,0,1,0,9.95,7.925,5.925,5.925,0,0,0,15.875,13.85Z" transform="translate(5.85)" />
    <path id="路径_647" data-name="路径 647" d="M10.3,18.875A4.42,4.42,0,0,1,9.875,16.9,9.426,9.426,0,0,1,13.7,9.553,12.492,12.492,0,0,0,9.875,9C1.975,9,0,14.925,0,16.9a1.934,1.934,0,0,0,1.975,1.975Z" transform="translate(0 6.825)"  fill-rule="evenodd"/>
    <path id="路径_648" data-name="路径 648" d="M6.937,12.875A4.937,4.937,0,1,0,2,7.937,4.937,4.937,0,0,0,6.937,12.875Z" transform="translate(1.95 0.975)" />
  </g>
</svg>
