<svg xmlns="http://www.w3.org/2000/svg" width="19.029" height="22.2" viewBox="0 0 19.029 22.2">
  <path id="icon_history_blue" d="M2.793,23.2a.793.793,0,1,1,0-1.586H4.379V20.029A7.136,7.136,0,0,1,8.435,13.59a1.11,1.11,0,0,0,.7-.935v-1.11a1.114,1.114,0,0,0-.7-.936A7.136,7.136,0,0,1,4.379,4.171V2.586H2.793A.793.793,0,0,1,2.793,1H20.236a.793.793,0,1,1,0,1.586H18.65V4.171a7.136,7.136,0,0,1-4.056,6.439,1.11,1.11,0,0,0-.7.935v1.11a1.114,1.114,0,0,0,.7.936,7.136,7.136,0,0,1,4.055,6.438v1.586h1.586a.793.793,0,1,1,0,1.586ZM5.964,2.586V4.171A5.506,5.506,0,0,0,6.5,6.55H16.53a5.529,5.529,0,0,0,.534-2.379V2.586Zm4.757,10.069a2.689,2.689,0,0,1-1.6,2.366,5.55,5.55,0,0,0-3.154,5.008,6.4,6.4,0,0,1,4.757-2.347Zm1.586,0v5.027a6.4,6.4,0,0,1,4.757,2.347,5.55,5.55,0,0,0-3.154-5.008,2.686,2.686,0,0,1-1.6-2.364Z" transform="translate(-2 -1)" />
</svg>
