<svg xmlns="http://www.w3.org/2000/svg" width="11.2" height="12.8" viewBox="0 0 11.2 12.8">
  <path id="icon_remove" d="M9,1.2V2h2.8a.4.4,0,0,1,0,.8h-.43l-.682,8.528a1.6,1.6,0,0,1-1.6,1.472H4.108a1.6,1.6,0,0,1-1.6-1.472L1.83,2.8H1.4a.4.4,0,0,1,0-.8H4.2V1.2A1.2,1.2,0,0,1,5.4,0H7.8A1.2,1.2,0,0,1,9,1.2Zm-4,0V2H8.2V1.2A.4.4,0,0,0,7.8.8H5.4a.4.4,0,0,0-.4.4ZM3.8,4.023l.4,6.8a.4.4,0,1,0,.8-.048l-.4-6.8a.4.4,0,1,0-.8.048ZM9.024,3.6a.4.4,0,0,0-.422.376l-.4,6.8a.4.4,0,0,0,.8.046l.4-6.8A.4.4,0,0,0,9.024,3.6ZM6.6,3.6a.4.4,0,0,0-.4.4v6.8a.4.4,0,0,0,.8,0V4A.4.4,0,0,0,6.6,3.6Z" transform="translate(-1 0)" fill="#fff"/>
</svg>
