<svg id="icon_edit" xmlns="http://www.w3.org/2000/svg" width="14.648" height="14.5" viewBox="0 0 14.648 14.5">
  <path id="路径_649" data-name="路径 649" d="M15.5,1.94a.5.5,0,0,1,0,.706L14.459,3.69l-2-2L13.5.646a.5.5,0,0,1,.707,0L15.5,1.939ZM13.752,4.4l-2-2L4.939,9.21a.5.5,0,0,0-.121.2l-.8,2.414a.25.25,0,0,0,.316.316l2.414-.805a.5.5,0,0,0,.2-.12L13.752,4.4Z" transform="translate(-1 -0.5)" fill="#2e89ff"/>
  <path id="路径_650" data-name="路径 650" d="M1,13.5A1.5,1.5,0,0,0,2.5,15h11A1.5,1.5,0,0,0,15,13.5v-6a.5.5,0,0,0-1,0v6a.5.5,0,0,1-.5.5H2.5a.5.5,0,0,1-.5-.5V2.5A.5.5,0,0,1,2.5,2H9A.5.5,0,0,0,9,1H2.5A1.5,1.5,0,0,0,1,2.5Z" transform="translate(-1 -0.5)" fill="#2e89ff" fill-rule="evenodd"/>
</svg>
